<svg width="100" height="100" viewBox="0 0 100 100" fill="none" xmlns="http://www.w3.org/2000/svg">
<g clip-path="url(#clip0_70_19)">
<rect width="100" height="100" rx="20" fill="white"/>
<path d="M29 21V79C29 82.3137 31.6863 85 35 85H39.5C42.8137 85 45.5 82.3137 45.5 79V66C45.5 62.6863 48.1863 60 51.5 60H58.5C61.8137 60 64.5 57.3137 64.5 54V51C64.5 47.6863 61.8137 45 58.5 45H51.5C48.1863 45 45.5 42.3137 45.5 39V36.5C45.5 33.1863 48.1863 30.5 51.5 30.5H70C73.3137 30.5 76 27.8137 76 24.5V21C76 17.6863 73.3137 15 70 15H35C31.6863 15 29 17.6863 29 21Z" fill="black"/>
</g>
<defs>
<clipPath id="clip0_70_19">
<rect width="100" height="100" fill="white"/>
</clipPath>
</defs>
</svg>
