<svg viewBox="0 0 52 50" fill="none" xmlns="http://www.w3.org/2000/svg">
<path d="M25.0659 47.6723C13.028 47.6723 3.2749 37.5748 3.2749 25.1186C3.2749 12.6679 13.028 2.57584 25.0659 2.57584C37.0984 2.57584 46.8568 12.6679 46.8568 25.1186C46.8568 37.5753 37.0984 47.6723 25.0659 47.6723Z" fill="white"/>
<path d="M28.4468 0.219222C27.7901 0.162352 27.4522 0.140396 26.8032 0.140396C27.9651 0.175822 29.1352 0.308514 30.3048 0.549467C42.7091 3.04878 50.6485 16.0003 48.0422 29.4802C45.4335 42.9545 33.265 51.8548 20.8607 49.3585C20.3087 49.2447 19.7644 49.112 19.2302 48.9579C21.3395 49.6319 23.6059 50 25.9952 50C28.387 50 30.2373 49.6643 32.0033 49.2527C39.6636 47.4523 45.8654 41.885 48.9611 34.9118C50.2748 31.8633 50.9999 28.4944 50.9999 24.961C50.9994 11.1618 40.5555 1.2833 28.4468 0.219222Z" fill="#54BBAB"/>
<path d="M0.0572005 23.0942C-0.8564 36.6524 9.27662 48.456 23.0939 49.6822C22.3558 49.6149 21.61 49.5066 20.8589 49.3575C8.45462 46.8611 0.515205 33.9036 3.1215 20.4243C5.71237 7.03919 17.7343 -1.82864 30.0494 0.497568C29.0152 0.291538 27.9662 0.145371 26.893 0.0665509C12.8356 -0.929683 0.972731 9.37638 0.0572005 23.0942Z" fill="#5BC5F2"/>
<path d="M30.3048 0.548433C17.9006 -1.95388 5.72966 6.94688 3.12047 20.4237C0.514179 33.9061 8.45359 46.8606 20.8578 49.3569C33.2645 51.8538 45.4354 42.9555 48.0422 29.4786C50.6485 16.0018 42.7115 3.04675 30.3048 0.548433ZM25.0657 47.6723C13.0279 47.6723 3.27475 37.5747 3.27475 25.1186C3.27475 12.6679 13.0279 2.57582 25.0657 2.57582C37.0983 2.57582 46.8567 12.6679 46.8567 25.1186C46.8567 37.5752 37.0983 47.6723 25.0657 47.6723Z" fill="#007E92"/>
<path d="M37.1663 14.3741H29.7081C28.3422 14.3741 28.1532 14.9482 28.1532 15.8148C28.1532 15.8148 28.1561 28.3602 28.1561 28.3762C28.0621 31.2522 27.0308 32.1731 25.0498 32.1731C23.0221 32.1731 21.9855 31.2033 21.9436 28.1437V15.8153C21.9436 14.9487 21.7474 14.3746 20.384 14.3746H12.9233V29.3141C12.9233 32.6201 13.5409 34.0174 14.8624 35.4362C16.9066 37.6431 20.4833 38.572 25.0499 38.572C29.6165 38.572 33.1961 37.6431 35.2451 35.4362C36.5613 34.0174 37.1842 32.6201 37.1842 29.3141L37.1663 14.3741Z" fill="#E42313"/>
</svg>
