<?xml version="1.0" encoding="UTF-8"?> <svg xmlns="http://www.w3.org/2000/svg" xmlns:xlink="http://www.w3.org/1999/xlink" width="189px" height="86px" viewBox="0 0 189 86"><g id="Page-1" stroke="none" stroke-width="1" fill="none" fill-rule="evenodd"><g id="logo-ulog" transform="translate(-3.000000, -7.000000)"><g id="U"><path d="M50.6786632,7.74293107 C31.4652956,6.98200562 13.6529563,20.8688951 9.15938301,41.3213372 C4.14395885,64.138818 17.6066838,86.4884323 39.2287918,91.239075 C40.537275,91.5269928 41.8457583,91.7429311 43.1516709,91.8894607 C21.0437018,89.4601547 3.87917736,71.5989722 3.87917736,49.920309 C3.87917736,26.583548 23.7686376,7.66838094 48.3033419,7.66838094 L50.5501286,7.73778968 L50.6786632,7.74293107 Z" id="Path" fill="#64C5E4"></path><path d="M53.0025707,7.90745549 C54.4601542,8.05398506 55.9228791,8.28791822 57.3856041,8.60925498 C79.0051413,13.3598977 92.4678663,35.709512 87.4550129,58.5269928 C82.8457583,79.5064272 64.2236503,93.575836 44.4473008,92.0154247 C45.7172237,92.1182524 47.0025707,92.1748077 48.3007712,92.1748077 C72.8354756,92.1748077 92.7249357,73.2570699 92.7249357,49.9228797 C92.7249357,27.9588693 75.1053984,9.91002619 52.5784061,7.86375369 L53.0025707,7.90745549 Z" id="Path" fill="#6BBDAE"></path><ellipse id="Oval" fill="#007D8F" transform="translate(48.303084, 49.921972) rotate(-77.607914) translate(-48.303084, -49.921972) " cx="48.3030836" cy="49.9219715" rx="42.3006877" ry="40.082183"></ellipse><circle id="Oval" fill="#FFFFFF" cx="47.4652957" cy="50.2236503" r="38.0257069"></circle><path d="M68.5912597,32.1028278 L55.5681234,32.1002571 C53.1876607,32.1002571 52.8534704,33.0616967 52.8534704,34.529563 C52.8534704,34.529563 52.8560411,55.6838047 52.8560411,55.7095116 C52.6992288,60.562982 50.8946016,62.1105399 47.4395887,62.1105399 C43.8946016,62.1105399 42.0899743,60.4832904 42.0154241,55.3239074 C42.0154241,52.4550129 42.0179949,34.529563 42.0179949,34.529563 C42.0179949,33.0616967 41.6812339,32.1002571 39.3033419,32.1002571 L26.277635,32.1028278 L26.277635,57.2904884 C26.277635,62.8714653 27.3547558,65.2236503 29.6580977,67.6195372 C33.2313624,71.3367609 39.470437,72.907455 47.4421593,72.907455 C55.4164524,72.907455 61.6580977,71.3367609 65.2287918,67.6195372 C67.5269923,65.2236503 68.6118252,62.8714653 68.6118252,57.2904884 L68.5912597,32.1028278 Z" id="Path" fill="#E22019"></path></g><g id="log" transform="translate(105.912597, 36.760926)" fill="#007D8F"><polygon id="Path" points="0.218508998 25.4858612 3.68380462 25.4858612 3.68380462 4.81491002 0.218508998 4.81491002 0.218508998 0.53470437 12.529563 0.53470437 12.529563 4.81491002 9.02313624 4.81491002 9.02313624 25.2005141 17.5861182 25.2005141 17.5861182 20.7172237 22.151671 20.7172237 22.151671 29.4832904 0.218508998 29.4832904"></polygon><path d="M39.8843188,0.0462724936 C48.4447301,0.0462724936 54.8868894,6.52956298 54.8868894,14.8046272 C54.8868894,23.3264781 48.4447301,29.9717223 39.8843188,29.9717223 C31.3213368,29.9717223 24.8791773,23.3264781 24.8791773,14.8046272 C24.8791773,6.52956298 31.3213368,0.0462724936 39.8843188,0.0462724936 Z M39.8843188,25.2827763 C45.1028278,25.2827763 49.3830334,20.7583548 49.3830334,14.8046272 C49.3830334,9.09768638 45.1028278,4.73521851 39.8843188,4.73521851 C34.6658098,4.73521851 30.3856041,9.09768638 30.3856041,14.8046272 C30.3830334,20.7583548 34.6632391,25.2827763 39.8843188,25.2827763 Z" id="Shape" fill-rule="nonzero"></path><path d="M73.6349614,0.0462724936 C78.81491,0.0462724936 84.9691517,2.0848329 84.9691517,5.75321337 L84.9691517,9.74807198 L80.1156812,9.74807198 L80.1156812,7.62724936 C80.1156812,5.62982006 76.9768638,4.6092545 73.8791773,4.6092545 C67.722365,4.6092545 63.8920309,8.52442159 63.8920309,14.6786632 C63.8920309,20.8766067 67.722365,25.4010282 74.1233933,25.4010282 C76.4473008,25.4010282 80.7686376,24.7892031 80.7686376,22.3830334 L80.7686376,19.285347 L75.5089974,19.285347 L75.5089974,15.2904884 L85.6195372,15.2904884 L85.6195372,24.0154241 C85.6195372,28.4190231 77.874036,29.9691517 73.5912597,29.9691517 C64.7017994,29.9691517 58.3419023,23.5269923 58.3419023,14.8843188 C58.3470437,6.28277634 64.6246787,0.0462724936 73.6349614,0.0462724936 Z" id="Path"></path></g></g></g></svg> 